<svg width="114" height="32" viewBox="0 0 114 32" fill="none" xmlns="http://www.w3.org/2000/svg">
<path d="M0.76 31V3H5.96V26.6H20.6V31H0.76ZM24.2253 31V9.64H29.2253V31H24.2253ZM26.7453 6.12C25.812 6.12 25.0386 5.82666 24.4253 5.24C23.8386 4.65333 23.5453 3.94667 23.5453 3.12C23.5453 2.26667 23.8386 1.56 24.4253 0.999998C25.0386 0.413332 25.812 0.119999 26.7453 0.119999C27.6786 0.119999 28.4386 0.399999 29.0253 0.959998C29.6386 1.49333 29.9453 2.17333 29.9453 3C29.9453 3.88 29.652 4.62666 29.0653 5.24C28.4786 5.82666 27.7053 6.12 26.7453 6.12ZM43.8278 31.28C41.4811 31.28 39.6678 30.68 38.3878 29.48C37.1078 28.2533 36.4678 26.4533 36.4678 24.08V4.92H41.4678V23.96C41.4678 24.9733 41.7211 25.76 42.2278 26.32C42.7611 26.88 43.4945 27.16 44.4278 27.16C45.5478 27.16 46.4811 26.8667 47.2278 26.28L48.6278 29.84C48.0411 30.32 47.3211 30.68 46.4678 30.92C45.6145 31.16 44.7345 31.28 43.8278 31.28ZM32.9478 13.8V9.8H47.1878V13.8H32.9478ZM50.9809 31V27.84L64.1409 11.92L65.0609 13.64H51.2209V9.64H69.0609V12.8L55.9009 28.72L54.9009 27H69.4209V31H50.9809ZM83.07 31.28C81.2567 31.28 79.6567 30.9467 78.27 30.28C76.8833 29.5867 75.8033 28.5467 75.03 27.16C74.2567 25.7467 73.87 23.9733 73.87 21.84V9.64H78.87V21.16C78.87 23.08 79.2967 24.52 80.15 25.48C81.03 26.4133 82.27 26.88 83.87 26.88C85.0433 26.88 86.0567 26.64 86.91 26.16C87.79 25.68 88.47 24.96 88.95 24C89.4567 23.04 89.71 21.8533 89.71 20.44V9.64H94.71V31H89.95V25.24L90.79 27C90.07 28.3867 89.0167 29.4533 87.63 30.2C86.2433 30.92 84.7233 31.28 83.07 31.28ZM101.257 31V9.64H106.017V15.52L105.457 13.8C106.097 12.36 107.097 11.2667 108.457 10.52C109.843 9.77333 111.563 9.4 113.617 9.4V14.16C113.403 14.1067 113.203 14.08 113.017 14.08C112.83 14.0533 112.643 14.04 112.457 14.04C110.563 14.04 109.057 14.6 107.937 15.72C106.817 16.8133 106.257 18.4533 106.257 20.64V31H101.257Z" fill="#565656"/>
</svg>
